# Blender 3.4.1
# www.blender.org
o stand
v 1.541568 0.000000 3.542822
v 1.541568 0.905368 3.542822
v 1.541568 0.000000 -3.542822
v 1.541568 0.905368 -3.542822
v 5.331659 0.000000 3.542822
v 5.331659 0.905368 3.542822
v 5.331659 0.000000 -3.542822
v 5.331659 0.905368 -3.542822
v 1.541568 0.301789 3.542822
v 1.541568 0.603578 3.542822
v 1.541568 0.603578 -3.542822
v 1.541568 0.301789 -3.542822
v 5.331659 0.603578 -3.542822
v 5.331659 0.301789 -3.542822
v 5.331659 0.603578 3.542822
v 5.331659 0.301789 3.542822
v 5.331659 0.301789 4.042822
v 5.331659 0.000000 4.042822
v 1.541568 0.000000 4.042822
v 1.541568 0.301789 4.042822
v 1.541568 0.603578 4.042822
v 5.331659 0.603578 4.042822
v 5.331659 0.301789 4.542822
v 5.331659 0.000000 4.542822
v 1.541568 0.000000 4.542822
v 1.541568 0.301789 4.542822
vn -1.0000 -0.0000 -0.0000
vn -0.0000 -0.0000 -1.0000
vn 1.0000 -0.0000 -0.0000
vn -0.0000 -0.0000 1.0000
vn -0.0000 1.0000 -0.0000
vn -0.0000 -1.0000 -0.0000
vt 0.816364 0.000000
vt 0.468743 0.123676
vt 0.580716 0.123676
vt 0.891012 0.468743
vt 0.468743 0.876324
vt 0.928336 0.468743
vt 0.468743 1.000000
vt 0.580716 1.000000
vt 0.816364 0.468743
vt 0.468743 0.000000
vt 0.692688 0.123676
vt 0.816364 0.468743
vt 0.580716 0.123676
vt 0.891012 0.937487
vt 0.000000 0.876324
vt 0.692688 1.000000
vt 0.928336 0.000000
vt 0.000000 0.000000
vt 0.816364 0.000000
vt 0.580716 1.000000
vt 0.506067 0.123676
vt 0.928336 0.468743
vt 0.816364 0.937487
vt 0.543392 0.123676
vt 0.853688 0.468743
vt 0.543391 1.000000
vt 0.891012 0.468743
vt 0.506067 1.000000
vt 0.618040 1.000000
vt 0.853688 0.000000
vt 0.655364 1.000000
vt 0.891012 0.000000
vt 0.928336 0.937487
vt 0.816364 0.468743
vt 0.618040 0.123676
vt 0.655364 0.123676
vt 0.816364 0.468743
vt 0.754526 0.468743
vt 0.655364 0.061838
vt 0.692688 0.061838
vt 0.754526 0.468743
vt 0.468743 0.061838
vt 0.754526 0.000000
vt 0.816364 0.937487
vt 0.506067 0.061838
vt 0.754526 0.937487
vt 0.754526 0.937487
vt 0.853688 0.937487
vt 0.543392 0.061838
vt 0.754526 0.468743
vt 0.853688 0.468743
vt 0.618040 0.061838
vt 0.891012 0.468743
vt 0.655364 0.000000
vt 0.692688 0.468743
vt 0.853688 0.468743
vt 0.692688 0.000000
vt 0.692688 0.468743
vt 0.468743 0.000000
vt 0.853688 0.937487
vt 0.692688 0.000000
vt 0.506067 0.000000
vt 0.891012 0.937487
vt 0.692688 0.937487
s 0
f 10/24/1 4/8/1 11/26/1
f 4/9/2 13/30/2 11/25/2
f 8/20/3 15/35/3 13/29/3
f 6/14/4 10/22/4 15/33/4
f 4/10/5 6/15/5 8/18/5
f 10/23/5 22/50/5 15/34/5
f 1/2/1 20/45/1 9/21/1
f 14/31/3 5/11/3 7/16/3
f 13/29/3 16/36/3 14/31/3
f 12/27/2 7/17/2 3/6/2
f 11/25/2 14/32/2 12/27/2
f 9/21/1 3/7/1 1/2/1
f 10/24/1 12/28/1 9/21/1
f 19/42/1 26/62/1 20/45/1
f 22/51/4 20/44/4 17/37/4
f 5/12/6 19/43/6 1/1/6
f 15/35/3 17/39/3 16/36/3
f 9/21/1 21/49/1 10/24/1
f 16/36/3 18/40/3 5/11/3
f 23/53/4 25/60/4 24/56/4
f 17/39/3 24/57/3 18/40/3
f 20/46/5 23/55/5 17/38/5
f 18/41/6 25/61/6 19/43/6
f 10/24/1 2/3/1 4/8/1
f 4/9/2 8/19/2 13/30/2
f 8/20/3 6/13/3 15/35/3
f 6/14/4 2/4/4 10/22/4
f 4/10/5 2/5/5 6/15/5
f 10/23/5 21/47/5 22/50/5
f 1/2/1 19/42/1 20/45/1
f 14/31/3 16/36/3 5/11/3
f 13/29/3 15/35/3 16/36/3
f 12/27/2 14/32/2 7/17/2
f 11/25/2 13/30/2 14/32/2
f 9/21/1 12/28/1 3/7/1
f 10/24/1 11/26/1 12/28/1
f 19/42/1 25/59/1 26/62/1
f 22/51/4 21/48/4 20/44/4
f 5/12/6 18/41/6 19/43/6
f 15/35/3 22/52/3 17/39/3
f 9/21/1 20/45/1 21/49/1
f 16/36/3 17/39/3 18/40/3
f 23/53/4 26/63/4 25/60/4
f 17/39/3 23/54/3 24/57/3
f 20/46/5 26/64/5 23/55/5
f 18/41/6 24/58/6 25/61/6
