# Blender 3.4.1
# www.blender.org
o walls
v -6.000000 0.000000 6.000000
v 6.000000 0.000000 6.000000
v 6.000000 6.000000 6.000000
v -6.000000 6.000000 6.000000
v -6.000000 0.000000 -4.382015
v 6.000000 0.000000 -4.382015
v -6.000000 6.000000 -4.382015
v 6.000000 6.000000 -4.382015
v -1.693803 0.000000 6.000000
v -4.444636 0.000000 6.000000
v -1.693803 6.000000 6.000000
v -4.444636 6.000000 6.000000
vn 1.0000 -0.0000 -0.0000
vn -1.0000 -0.0000 -0.0000
vn -0.0000 -0.0000 -1.0000
vn -0.0000 -1.0000 -0.0000
vt 0.866884 0.000000
vt 0.577923 0.577922
vt 0.577923 0.000000
vt 0.577923 0.500000
vt 0.866884 0.500000
vt 0.288961 0.000000
vt 0.564499 0.045020
vt 0.564499 0.349627
vt 0.577923 0.000000
vt 0.288961 0.577922
vt 0.866884 0.500000
vt 0.577923 1.000000
vt 0.577923 0.500000
vt 0.300963 0.349627
vt 0.866884 1.000000
vt 0.300963 0.045020
vt 0.577923 0.370535
vt 0.577923 0.503016
vt 0.288961 0.370535
vt 0.288961 0.503016
s 0
f 5/11/1 4/9/1 1/1/1
f 2/4/2 8/15/2 6/12/2
f 1/2/3 12/20/3 10/18/3
f 9/17/3 3/6/3 2/3/3
f 10/18/3 11/19/3 9/17/3
f 7/14/4 3/7/4 4/8/4
f 5/11/1 7/13/1 4/9/1
f 2/4/2 3/5/2 8/15/2
f 1/2/3 4/10/3 12/20/3
f 9/17/3 11/19/3 3/6/3
f 10/18/3 12/20/3 11/19/3
f 7/14/4 8/16/4 3/7/4
