# Blender 3.4.1
# www.blender.org
o walls.001
v -6.000000 0.000000 -4.382015
v 6.000000 0.000000 -4.382015
v -6.000000 6.000000 -4.382015
v 6.000000 6.000000 -4.382015
v -6.000000 0.000000 -4.392015
v 6.000000 0.000000 -4.392015
v -6.000000 6.000000 -4.392015
v 6.000000 6.000000 -4.392015
v 3.108002 0.000000 -4.392015
v -3.108002 0.000000 -4.392015
v 3.108002 6.000000 -4.392015
v -3.108002 6.000000 -4.392015
v -6.000000 0.000000 -4.372015
v 6.000000 0.000000 -4.372015
v -6.000000 6.000000 -4.372015
v 6.000000 6.000000 -4.372015
v 3.108002 0.000000 -4.372015
v -3.108002 0.000000 -4.372015
v 3.108002 6.000000 -4.372015
v -3.108002 6.000000 -4.372015
vn -0.0000 -0.0000 -1.0000
vn -0.0000 -0.0000 1.0000
vt 0.286370 0.577642
vt 0.286370 0.002169
vt -0.000233 0.577642
vt -0.000233 0.002169
vt 0.286370 0.140312
vt 0.286370 0.439500
vt -0.000233 0.140312
vt -0.000233 0.439500
vt 0.286370 0.577642
vt 0.286370 0.002169
vt -0.000233 0.577642
vt -0.000233 0.002169
vt 0.286370 0.140312
vt 0.286370 0.439500
vt -0.000233 0.140312
vt -0.000233 0.439500
s 0
f 5/1/1 12/8/1 10/6/1
f 9/5/1 8/4/1 6/2/1
f 20/16/2 13/9/2 18/14/2
f 16/12/2 17/13/2 14/10/2
f 5/1/1 7/3/1 12/8/1
f 9/5/1 11/7/1 8/4/1
f 20/16/2 15/11/2 13/9/2
f 16/12/2 19/15/2 17/13/2
l 1 3
l 4 2
